<mxfile host="app.diagrams.net" modified="2021-03-09T18:31:07.782Z" agent="5.0 (Windows NT 10.0; Win64; x64) AppleWebKit/537.36 (KHTML, like Gecko) Chrome/88.0.4324.190 Safari/537.36" etag="cXs_YNzh38-PB_iZybLT" version="14.4.4" type="github">
  <diagram name="Page-1" id="a7904f86-f2b4-8e86-fa97-74104820619b">
    <mxGraphModel dx="1422" dy="794" grid="1" gridSize="10" guides="1" tooltips="1" connect="1" arrows="1" fold="1" page="1" pageScale="1" pageWidth="1100" pageHeight="850" background="#ffffff" math="0" shadow="0">
      <root>
        <mxCell id="0" />
        <mxCell id="1" parent="0" />
        <mxCell id="24794b860abc3c2d-36" style="edgeStyle=orthogonalEdgeStyle;rounded=0;html=1;exitX=0.65;exitY=1.019;entryX=0.75;entryY=0;labelBackgroundColor=none;endArrow=none;endFill=0;endSize=8;fontFamily=Verdana;fontSize=12;align=left;entryDx=0;entryDy=0;exitDx=0;exitDy=0;exitPerimeter=0;" parent="1" source="24794b860abc3c2d-1" target="24794b860abc3c2d-16" edge="1">
          <mxGeometry relative="1" as="geometry">
            <Array as="points">
              <mxPoint x="170" y="390" />
              <mxPoint x="145" y="390" />
              <mxPoint x="145" y="440" />
              <mxPoint x="140" y="440" />
              <mxPoint x="140" y="445" />
            </Array>
          </mxGeometry>
        </mxCell>
        <mxCell id="24794b860abc3c2d-1" value="&lt;p style=&quot;margin: 0px ; margin-top: 4px ; text-align: center ; text-decoration: underline&quot;&gt;&lt;b&gt;QF_Organization_Units&lt;/b&gt;&lt;/p&gt;&lt;hr&gt;&lt;p style=&quot;margin: 0px ; margin-left: 8px&quot;&gt;&lt;b&gt;PK Organization_Unit_ID&lt;/b&gt;&lt;br&gt;&amp;nbsp; &amp;nbsp; &amp;nbsp; Address&lt;br&gt;&amp;nbsp; &amp;nbsp; &amp;nbsp; Email_Address&lt;/p&gt;&lt;p style=&quot;margin: 0px ; margin-left: 8px&quot;&gt;&amp;nbsp; &amp;nbsp; &amp;nbsp; Organization_Unit_Name&lt;/p&gt;&lt;p style=&quot;margin: 0px ; margin-left: 8px&quot;&gt;&amp;nbsp; &amp;nbsp; &amp;nbsp; Organization_Unit_Discription&lt;/p&gt;&lt;p style=&quot;margin: 0px ; margin-left: 8px&quot;&gt;&amp;nbsp; &amp;nbsp; &amp;nbsp; Web_Link&lt;/p&gt;&lt;p style=&quot;margin: 0px ; margin-left: 8px&quot;&gt;&amp;nbsp; &amp;nbsp; &amp;nbsp; Other_Details&lt;/p&gt;&lt;p style=&quot;margin: 0px ; margin-left: 8px&quot;&gt;&amp;nbsp; &amp;nbsp; &amp;nbsp; eg Qatar Diabetes Association&lt;/p&gt;" style="verticalAlign=top;align=left;overflow=fill;fontSize=12;fontFamily=Helvetica;html=1;rounded=0;shadow=0;comic=0;labelBackgroundColor=none;strokeWidth=1" parent="1" vertex="1">
          <mxGeometry x="40" y="200" width="200" height="160" as="geometry" />
        </mxCell>
        <mxCell id="24794b860abc3c2d-16" value="&lt;p style=&quot;margin: 0px ; margin-top: 4px ; text-align: center ; text-decoration: underline&quot;&gt;&lt;b&gt;QF_Events&lt;/b&gt;&lt;/p&gt;&lt;hr&gt;&lt;p style=&quot;margin: 0px ; margin-left: 8px&quot;&gt;&lt;b&gt;PK Event_ID&lt;/b&gt;&lt;br&gt;&lt;b&gt;FK &lt;/b&gt;Organized_by_Unit_ID&lt;br&gt;&amp;nbsp; &amp;nbsp; &amp;nbsp; Event_Name&lt;/p&gt;&lt;p style=&quot;margin: 0px ; margin-left: 8px&quot;&gt;&amp;nbsp; &amp;nbsp; &amp;nbsp; Event_Description&lt;/p&gt;&lt;p style=&quot;margin: 0px ; margin-left: 8px&quot;&gt;&amp;nbsp; &amp;nbsp; &amp;nbsp; Start_Date&lt;/p&gt;&lt;p style=&quot;margin: 0px ; margin-left: 8px&quot;&gt;&amp;nbsp; &amp;nbsp; &amp;nbsp; End_Date&lt;/p&gt;&lt;p style=&quot;margin: 0px ; margin-left: 8px&quot;&gt;&amp;nbsp; &amp;nbsp; &amp;nbsp; Other_Details&lt;/p&gt;" style="verticalAlign=top;align=left;overflow=fill;fontSize=12;fontFamily=Helvetica;html=1;rounded=0;shadow=0;comic=0;labelBackgroundColor=none;strokeWidth=1" parent="1" vertex="1">
          <mxGeometry x="40" y="445" width="150" height="135" as="geometry" />
        </mxCell>
        <mxCell id="24794b860abc3c2d-40" style="edgeStyle=orthogonalEdgeStyle;rounded=0;html=1;exitX=0;exitY=0.25;entryX=1;entryY=0.25;labelBackgroundColor=none;endArrow=none;endFill=0;endSize=8;fontFamily=Verdana;fontSize=12;align=left;" parent="1" source="24794b860abc3c2d-20" target="24794b860abc3c2d-1" edge="1">
          <mxGeometry relative="1" as="geometry" />
        </mxCell>
        <mxCell id="LdN0eDF1NeK06vgl00BQ-2" style="rounded=0;orthogonalLoop=1;jettySize=auto;html=1;entryX=0.357;entryY=0.028;entryDx=0;entryDy=0;entryPerimeter=0;edgeStyle=orthogonalEdgeStyle;endArrow=ERzeroToOne;endFill=1;" edge="1" parent="1" source="24794b860abc3c2d-17" target="24794b860abc3c2d-21">
          <mxGeometry relative="1" as="geometry" />
        </mxCell>
        <mxCell id="24794b860abc3c2d-17" value="&lt;p style=&quot;margin: 0px ; margin-top: 4px ; text-align: center ; text-decoration: underline&quot;&gt;&lt;b&gt;People&lt;/b&gt;&lt;/p&gt;&lt;hr&gt;&lt;p style=&quot;margin: 0px ; margin-left: 8px&quot;&gt;&lt;b&gt;PK Person_ID&lt;/b&gt;&lt;br&gt;&amp;nbsp; &amp;nbsp; &amp;nbsp; Gender_MFU&lt;br&gt;&amp;nbsp; &amp;nbsp; &amp;nbsp; Date_of_Birth&lt;/p&gt;&lt;p style=&quot;margin: 0px ; margin-left: 8px&quot;&gt;&amp;nbsp; &amp;nbsp; &amp;nbsp; Personal_Name&lt;/p&gt;&lt;p style=&quot;margin: 0px ; margin-left: 8px&quot;&gt;&amp;nbsp; &amp;nbsp; &amp;nbsp; Second_Name&lt;/p&gt;&lt;p style=&quot;margin: 0px ; margin-left: 8px&quot;&gt;&amp;nbsp; &amp;nbsp; &amp;nbsp; Third_Name&lt;/p&gt;&lt;p style=&quot;margin: 0px ; margin-left: 8px&quot;&gt;&amp;nbsp; &amp;nbsp; &amp;nbsp; Family_Name&lt;/p&gt;&lt;p style=&quot;margin: 0px ; margin-left: 8px&quot;&gt;&amp;nbsp; &amp;nbsp; &amp;nbsp; Address&lt;/p&gt;&lt;p style=&quot;margin: 0px ; margin-left: 8px&quot;&gt;&amp;nbsp; &amp;nbsp; &amp;nbsp; Email_Address&lt;/p&gt;&lt;p style=&quot;margin: 0px ; margin-left: 8px&quot;&gt;&amp;nbsp; &amp;nbsp; &amp;nbsp; Other_Details&lt;/p&gt;" style="verticalAlign=top;align=left;overflow=fill;fontSize=12;fontFamily=Helvetica;html=1;rounded=0;shadow=0;comic=0;labelBackgroundColor=none;strokeWidth=1" parent="1" vertex="1">
          <mxGeometry x="570" y="170" width="140" height="180" as="geometry" />
        </mxCell>
        <mxCell id="24794b860abc3c2d-38" style="edgeStyle=orthogonalEdgeStyle;rounded=0;html=1;exitX=0;exitY=0.5;entryX=1;entryY=0.5;labelBackgroundColor=none;endArrow=none;endFill=0;endSize=8;fontFamily=Verdana;fontSize=12;align=left;" parent="1" source="24794b860abc3c2d-18" target="24794b860abc3c2d-16" edge="1">
          <mxGeometry relative="1" as="geometry" />
        </mxCell>
        <mxCell id="24794b860abc3c2d-18" value="&lt;p style=&quot;margin: 0px ; margin-top: 4px ; text-align: center ; text-decoration: underline&quot;&gt;&lt;b&gt;People_in_Events&lt;/b&gt;&lt;/p&gt;&lt;hr&gt;&lt;p style=&quot;margin: 0px ; margin-left: 8px&quot;&gt;&lt;b&gt;PF Event_ID&lt;/b&gt;&lt;/p&gt;&lt;p style=&quot;margin: 0px ; margin-left: 8px&quot;&gt;&lt;b&gt;PF Person_ID&lt;/b&gt;&lt;/p&gt;" style="verticalAlign=top;align=left;overflow=fill;fontSize=12;fontFamily=Helvetica;html=1;rounded=0;shadow=0;comic=0;labelBackgroundColor=none;strokeWidth=1" parent="1" vertex="1">
          <mxGeometry x="280" y="475" width="120" height="75" as="geometry" />
        </mxCell>
        <mxCell id="24794b860abc3c2d-33" style="edgeStyle=orthogonalEdgeStyle;rounded=0;html=1;exitX=1;exitY=0.5;entryX=0;entryY=0.75;labelBackgroundColor=none;endArrow=none;endFill=0;endSize=8;fontFamily=Verdana;fontSize=12;align=left;" parent="1" source="24794b860abc3c2d-21" target="24794b860abc3c2d-24" edge="1">
          <mxGeometry relative="1" as="geometry">
            <Array as="points">
              <mxPoint x="740" y="493" />
              <mxPoint x="740" y="530" />
              <mxPoint x="850" y="530" />
            </Array>
          </mxGeometry>
        </mxCell>
        <mxCell id="24794b860abc3c2d-35" style="edgeStyle=orthogonalEdgeStyle;rounded=0;html=1;entryX=0.064;entryY=1.033;labelBackgroundColor=none;endArrow=none;endFill=0;endSize=8;fontFamily=Verdana;fontSize=12;align=left;entryDx=0;entryDy=0;entryPerimeter=0;exitX=0.5;exitY=0;exitDx=0;exitDy=0;" parent="1" source="24794b860abc3c2d-18" target="24794b860abc3c2d-17" edge="1">
          <mxGeometry relative="1" as="geometry">
            <mxPoint x="290" y="440" as="sourcePoint" />
          </mxGeometry>
        </mxCell>
        <mxCell id="24794b860abc3c2d-48" style="edgeStyle=orthogonalEdgeStyle;rounded=0;html=1;exitX=0.014;exitY=0.655;labelBackgroundColor=none;endArrow=none;endFill=0;endSize=8;fontFamily=Verdana;fontSize=12;align=left;exitDx=0;exitDy=0;exitPerimeter=0;" parent="1" source="24794b860abc3c2d-23" edge="1">
          <mxGeometry relative="1" as="geometry">
            <mxPoint x="710" y="311" as="targetPoint" />
            <Array as="points">
              <mxPoint x="720" y="311" />
              <mxPoint x="720" y="311" />
            </Array>
          </mxGeometry>
        </mxCell>
        <mxCell id="24794b860abc3c2d-21" value="&lt;p style=&quot;margin: 0px ; margin-top: 4px ; text-align: center ; text-decoration: underline&quot;&gt;&lt;b&gt;QF_Staff&lt;/b&gt;&lt;/p&gt;&lt;hr&gt;&lt;p style=&quot;margin: 0px ; margin-left: 8px&quot;&gt;&lt;b&gt;PF QF_Staff_ID&lt;/b&gt;&lt;br&gt;&amp;nbsp; &amp;nbsp; &amp;nbsp; Other_Details&lt;/p&gt;" style="verticalAlign=top;align=left;overflow=fill;fontSize=12;fontFamily=Helvetica;html=1;rounded=0;shadow=0;comic=0;labelBackgroundColor=none;strokeWidth=1" parent="1" vertex="1">
          <mxGeometry x="590" y="455" width="120" height="75" as="geometry" />
        </mxCell>
        <mxCell id="24794b860abc3c2d-23" value="&lt;p style=&quot;margin: 0px ; margin-top: 4px ; text-align: center ; text-decoration: underline&quot;&gt;&lt;b&gt;Photos&lt;/b&gt;&lt;/p&gt;&lt;hr&gt;&lt;p style=&quot;margin: 0px ; margin-left: 8px&quot;&gt;&lt;b&gt;PK Photo_ID&lt;/b&gt;&lt;br&gt;&lt;b&gt;FK &lt;/b&gt;Person_ID&lt;br&gt;&lt;b&gt;FK &lt;/b&gt;Tourist_Attraction_ID&lt;/p&gt;&lt;p style=&quot;margin: 0px ; margin-left: 8px&quot;&gt;&amp;nbsp; &amp;nbsp; &amp;nbsp; Photo_File_URL&lt;/p&gt;&lt;p style=&quot;margin: 0px ; margin-left: 8px&quot;&gt;&amp;nbsp; &amp;nbsp; &amp;nbsp; Photo_Title&lt;/p&gt;&lt;p style=&quot;margin: 0px ; margin-left: 8px&quot;&gt;&amp;nbsp; &amp;nbsp; &amp;nbsp; Photo_Description&lt;/p&gt;&lt;p style=&quot;margin: 0px ; margin-left: 8px&quot;&gt;&amp;nbsp; &amp;nbsp; &amp;nbsp; Other_Details&lt;/p&gt;&lt;p style=&quot;margin: 0px ; margin-left: 8px&quot;&gt;&lt;br&gt;&lt;/p&gt;" style="verticalAlign=top;align=left;overflow=fill;fontSize=12;fontFamily=Helvetica;html=1;rounded=0;shadow=0;comic=0;labelBackgroundColor=none;strokeWidth=1" parent="1" vertex="1">
          <mxGeometry x="750" y="180" width="150" height="150" as="geometry" />
        </mxCell>
        <mxCell id="24794b860abc3c2d-24" value="&lt;p style=&quot;margin: 0px ; margin-top: 4px ; text-align: center ; text-decoration: underline&quot;&gt;&lt;b&gt;Ref_Job_Titles&lt;/b&gt;&lt;/p&gt;&lt;hr&gt;&lt;p style=&quot;margin: 0px ; margin-left: 8px&quot;&gt;&lt;b&gt;PK Job_Title_Code&lt;/b&gt;&lt;br&gt;&amp;nbsp; &amp;nbsp; &amp;nbsp; Job_Title_Description&lt;br&gt;&amp;nbsp; &amp;nbsp; &amp;nbsp; eg Head of Department&lt;/p&gt;" style="verticalAlign=top;align=left;overflow=fill;fontSize=12;fontFamily=Helvetica;html=1;rounded=0;shadow=0;comic=0;labelBackgroundColor=none;strokeWidth=1" parent="1" vertex="1">
          <mxGeometry x="790" y="460" width="170" height="90" as="geometry" />
        </mxCell>
        <mxCell id="24794b860abc3c2d-49" style="edgeStyle=orthogonalEdgeStyle;rounded=0;html=1;exitX=0.25;exitY=0;entryX=0.6;entryY=1.08;labelBackgroundColor=none;endArrow=none;endFill=0;endSize=8;fontFamily=Verdana;fontSize=12;align=left;entryDx=0;entryDy=0;entryPerimeter=0;exitDx=0;exitDy=0;" parent="1" source="24794b860abc3c2d-25" target="24794b860abc3c2d-21" edge="1">
          <mxGeometry relative="1" as="geometry" />
        </mxCell>
        <mxCell id="24794b860abc3c2d-25" value="&lt;p style=&quot;margin: 0px ; margin-top: 4px ; text-align: center ; text-decoration: underline&quot;&gt;&lt;b&gt;QF_Staff_Ref_Job_Titles&lt;/b&gt;&lt;/p&gt;&lt;hr&gt;&lt;p style=&quot;margin: 0px ; margin-left: 8px&quot;&gt;&lt;b&gt;PF QF_Staff_ID&lt;/b&gt;&lt;br&gt;&lt;b&gt;PF Job_Title_Code&lt;/b&gt;&lt;br&gt;&lt;b&gt;PK Date_From&lt;/b&gt;&lt;/p&gt;&lt;p style=&quot;margin: 0px ; margin-left: 8px&quot;&gt;&amp;nbsp; &amp;nbsp; &amp;nbsp; Date_To&lt;/p&gt;" style="verticalAlign=top;align=left;overflow=fill;fontSize=12;fontFamily=Helvetica;html=1;rounded=0;shadow=0;comic=0;labelBackgroundColor=none;strokeWidth=1" parent="1" vertex="1">
          <mxGeometry x="600" y="620" width="170" height="100" as="geometry" />
        </mxCell>
        <mxCell id="24794b860abc3c2d-20" value="&lt;p style=&quot;margin: 0px ; margin-top: 4px ; text-align: center ; text-decoration: underline&quot;&gt;&lt;b&gt;People_in_Organization_Units&lt;/b&gt;&lt;/p&gt;&lt;hr&gt;&lt;p style=&quot;margin: 0px ; margin-left: 8px&quot;&gt;&lt;b&gt;PF Person_ID&lt;/b&gt;&lt;br&gt;&lt;b&gt;PF Organization_Unit_ID&lt;/b&gt;&lt;br&gt;&lt;/p&gt;" style="verticalAlign=top;align=left;overflow=fill;fontSize=12;fontFamily=Helvetica;html=1;rounded=0;shadow=0;comic=0;labelBackgroundColor=none;strokeWidth=1" parent="1" vertex="1">
          <mxGeometry x="320" y="230" width="180" height="80" as="geometry" />
        </mxCell>
        <mxCell id="LdN0eDF1NeK06vgl00BQ-1" style="edgeStyle=orthogonalEdgeStyle;rounded=0;html=1;exitX=0;exitY=0.25;entryX=1;entryY=0.25;labelBackgroundColor=none;endArrow=none;endFill=0;endSize=8;fontFamily=Verdana;fontSize=12;align=left;" edge="1" parent="1" source="24794b860abc3c2d-17" target="24794b860abc3c2d-20">
          <mxGeometry relative="1" as="geometry">
            <mxPoint x="570" y="215" as="sourcePoint" />
            <mxPoint x="240" y="240" as="targetPoint" />
          </mxGeometry>
        </mxCell>
      </root>
    </mxGraphModel>
  </diagram>
</mxfile>
